<svg width="48" height="48" viewBox="0 0 48 48" fill="none" xmlns="http://www.w3.org/2000/svg">
<g id="Icon">
<path id="Shape" fill-rule="evenodd" clip-rule="evenodd" d="M9 19C6.25 19 4 21.25 4 24C4 26.75 6.25 29 9 29C11.75 29 14 26.75 14 24C14 21.25 11.75 19 9 19V19ZM39 19C36.25 19 34 21.25 34 24C34 26.75 36.25 29 39 29C41.75 29 44 26.75 44 24C44 21.25 41.75 19 39 19V19ZM24 19C21.25 19 19 21.25 19 24C19 26.75 21.25 29 24 29C26.75 29 29 26.75 29 24C29 21.25 26.75 19 24 19V19Z" fill="#4A4A4A"/>
</g>
</svg>
