<svg width="48" height="48" viewBox="0 0 48 48" fill="none" xmlns="http://www.w3.org/2000/svg">
<g id="Icon">
<path id="Combined Shape" fill-rule="evenodd" clip-rule="evenodd" d="M30.4127 35.9403C28.9236 34.4965 28.8821 32.1205 30.3199 30.6256V30.6256C31.7659 29.1221 34.1586 29.0803 35.6562 30.5324L42.865 37.5221C44.354 38.966 44.3955 41.342 42.9577 42.8369V42.8369C41.5117 44.3404 39.119 44.3821 37.6214 42.93L30.4127 35.9403ZM19.4512 29.1579C24.7558 29.1579 29.056 24.8402 29.056 19.514C29.056 14.1879 24.7558 9.87018 19.4512 9.87018C14.1466 9.87018 9.8464 14.1879 9.8464 19.514C9.8464 24.8402 14.1466 29.1579 19.4512 29.1579ZM19.4512 35.0281C10.9177 35.0281 4 28.0822 4 19.514C4 10.9459 10.9177 4 19.4512 4C27.9847 4 34.9024 10.9459 34.9024 19.514C34.9024 28.0822 27.9847 35.0281 19.4512 35.0281Z" fill="#4A4A4A"/>
</g>
</svg>
